<svg width="8" height="9" viewBox="0 0 8 9" fill="none" xmlns="http://www.w3.org/2000/svg">
<path d="M3.9 8.22C3.18933 8.22 2.548 8.05533 1.976 7.726C1.404 7.39667 0.953333 6.946 0.624 6.374C0.294667 5.802 0.13 5.16067 0.13 4.45C0.13 3.73067 0.294667 3.08933 0.624 2.526C0.953333 1.954 1.404 1.50333 1.976 1.174C2.548 0.844666 3.18933 0.679999 3.9 0.679999C4.61933 0.679999 5.26067 0.844666 5.824 1.174C6.396 1.50333 6.84667 1.954 7.176 2.526C7.50533 3.08933 7.67 3.73067 7.67 4.45C7.67 5.16067 7.50533 5.802 7.176 6.374C6.84667 6.946 6.396 7.39667 5.824 7.726C5.26067 8.05533 4.61933 8.22 3.9 8.22ZM3.9 7.635C4.50667 7.635 5.044 7.49633 5.512 7.219C5.98867 6.94167 6.36567 6.56467 6.643 6.088C6.92033 5.60267 7.059 5.05667 7.059 4.45C7.059 3.83467 6.92033 3.28867 6.643 2.812C6.36567 2.33533 5.98867 1.95833 5.512 1.681C5.044 1.40367 4.50667 1.265 3.9 1.265C3.302 1.265 2.76467 1.40367 2.288 1.681C1.81133 1.95833 1.43433 2.33533 1.157 2.812C0.879667 3.28867 0.741 3.83467 0.741 4.45C0.741 5.05667 0.879667 5.60267 1.157 6.088C1.43433 6.56467 1.81133 6.94167 2.288 7.219C2.76467 7.49633 3.302 7.635 3.9 7.635ZM3.887 6.79C3.30633 6.79 2.81667 6.58633 2.418 6.179C2.01933 5.77167 1.82 5.19533 1.82 4.45C1.82 3.94733 1.91533 3.52267 2.106 3.176C2.29667 2.82933 2.548 2.565 2.86 2.383C3.172 2.201 3.51433 2.11 3.887 2.11C4.433 2.11 4.862 2.24433 5.174 2.513C5.49467 2.78167 5.69833 3.14133 5.785 3.592H5.135C5.03967 3.31467 4.888 3.098 4.68 2.942C4.48067 2.786 4.21633 2.708 3.887 2.708C3.51433 2.708 3.185 2.851 2.899 3.137C2.613 3.41433 2.47 3.852 2.47 4.45C2.47 5.048 2.613 5.49 2.899 5.776C3.185 6.062 3.51433 6.205 3.887 6.205C4.24233 6.205 4.524 6.12267 4.732 5.958C4.94867 5.79333 5.09167 5.57667 5.161 5.308H5.785C5.681 5.776 5.46433 6.14 5.135 6.4C4.81433 6.66 4.39833 6.79 3.887 6.79Z" fill="white"/>
</svg>
