<svg width="103" height="24" viewBox="0 0 103 24" fill="none" xmlns="http://www.w3.org/2000/svg">
<path d="M26.8042 23.1999H22.7184V9.8562L15.5292 22.528C15.3525 22.8509 15.103 23.0957 14.7807 23.2624C14.4688 23.4291 14.1309 23.5124 13.767 23.5124C13.4135 23.5124 13.0808 23.4291 12.769 23.2624C12.4675 23.0957 12.2283 22.8509 12.0516 22.528L4.83124 9.8562V23.1999H0.776611V2.52803C0.776611 2.05928 0.911768 1.64261 1.18208 1.27803C1.46278 0.913451 1.82666 0.668656 2.27371 0.543656C2.49203 0.491573 2.71036 0.475947 2.92868 0.496781C3.14701 0.507198 3.35494 0.554073 3.55247 0.637406C3.7604 0.710322 3.94754 0.819699 4.11388 0.965531C4.28023 1.10095 4.42058 1.26761 4.53494 1.46553L13.767 17.5436L22.9991 1.46553C23.2382 1.0697 23.5657 0.788447 23.9816 0.621781C24.4078 0.455114 24.8497 0.429073 25.3071 0.543656C25.7438 0.668656 26.1024 0.913451 26.3832 1.27803C26.6638 1.64261 26.8042 2.05928 26.8042 2.52803V23.1999Z" fill="white"/>
<path d="M49.0891 11.903C49.0891 12.4656 48.9903 13.0749 48.7928 13.7312C48.5952 14.377 48.2729 14.9812 47.8258 15.5436C47.3893 16.0957 46.8122 16.5593 46.0949 16.9343C45.3879 17.3093 44.525 17.4968 43.5062 17.4968H36.1922V13.6374H43.5062C44.0572 13.6374 44.4834 13.4708 44.7849 13.1374C45.0864 12.7936 45.2371 12.3718 45.2371 11.8718C45.2371 11.3405 45.0656 10.9239 44.7225 10.6218C44.3899 10.3197 43.9843 10.1687 43.5062 10.1687H36.1922C35.6412 10.1687 35.215 10.3405 34.9135 10.6843C34.612 11.0176 34.4612 11.4343 34.4612 11.9343V17.6062C34.4612 18.1478 34.6276 18.5697 34.9603 18.8718C35.3033 19.1739 35.7244 19.3249 36.2234 19.3249H43.5062V23.1999H36.1922C35.6308 23.1999 35.0226 23.1009 34.3677 22.903C33.7231 22.7051 33.1201 22.3874 32.5586 21.9499C32.0076 21.502 31.545 20.9239 31.1707 20.2156C30.7964 19.4968 30.6093 18.627 30.6093 17.6062V11.903C30.6093 11.3405 30.708 10.7364 30.9056 10.0905C31.1031 9.43428 31.4203 8.83011 31.8569 8.27803C32.3039 7.71553 32.8809 7.24678 33.5879 6.87178C34.3052 6.49678 35.1734 6.30928 36.1922 6.30928H43.5062C44.0675 6.30928 44.6705 6.40824 45.3151 6.60616C45.9701 6.80408 46.5731 7.12699 47.1241 7.57491C47.6856 8.01244 48.1534 8.59052 48.5276 9.30932C48.9019 10.0176 49.0891 10.8822 49.0891 11.903Z" fill="white"/>
<path d="M67.1478 10.3718H60.0678V23.1999H55.9664V10.3718H50.6953V6.30928H55.9664V0.793656H60.0678V6.30928H67.1478V10.3718Z" fill="white"/>
<path d="M86.2509 17.6062C86.2509 18.1687 86.1527 18.778 85.9547 19.4343C85.7575 20.0801 85.4349 20.6843 84.9878 21.2468C84.5518 21.7988 83.9745 22.2624 83.2567 22.6374C82.5501 23.0124 81.687 23.1999 80.6682 23.1999H73.3544C72.793 23.1999 72.1848 23.1009 71.5298 22.903C70.8852 22.7051 70.2822 22.3874 69.7208 21.9499C69.1698 21.502 68.7072 20.9239 68.3329 20.2156C67.9587 19.4968 67.7715 18.627 67.7715 17.6062C67.7715 17.0436 67.8703 16.4343 68.0678 15.778C68.2654 15.1218 68.5824 14.5176 69.0191 13.9656C69.4661 13.403 70.0432 12.9343 70.7501 12.5593C71.4675 12.1843 72.3356 11.9968 73.3544 11.9968H80.6682V15.8718H73.3544C72.8034 15.8718 72.3771 16.0436 72.0756 16.3874C71.7741 16.7208 71.6234 17.1374 71.6234 17.6374C71.6234 18.1687 71.795 18.5853 72.1381 18.8874C72.4916 19.1791 72.9074 19.3249 73.3857 19.3249H80.6682C81.2191 19.3249 81.6455 19.1583 81.9473 18.8249C82.2483 18.4916 82.3992 18.0749 82.3992 17.5749V11.903C82.3992 11.3718 82.2331 10.9499 81.9002 10.6374C81.5784 10.3249 81.1672 10.1687 80.6682 10.1687H71.7638V6.30928H80.6682C81.2295 6.30928 81.8331 6.40824 82.4774 6.60616C83.1322 6.80408 83.735 7.12699 84.2859 7.57491C84.848 8.01244 85.3159 8.59052 85.6896 9.30932C86.0641 10.0176 86.2509 10.8822 86.2509 11.903V17.6062Z" fill="white"/>
<path d="M95.3349 2.7374C95.3349 3.01553 95.3005 3.26397 95.2319 3.48272C95.164 3.70147 95.0698 3.89522 94.9516 4.06397C94.8358 4.2296 94.7017 4.37178 94.5492 4.49053C94.3967 4.60928 94.2354 4.70772 94.0669 4.78584C93.9017 4.86084 93.734 4.91553 93.5623 4.94991C93.3938 4.98428 93.235 5.00147 93.0848 5.00147L95.6255 7.19991H93.7444L91.2085 5.00147H90.3342V3.78272H93.0848C93.2374 3.77022 93.3763 3.73897 93.5016 3.68897C93.6294 3.63584 93.738 3.56553 93.829 3.47803C93.9224 3.39053 93.9943 3.28584 94.0438 3.16397C94.0941 3.03897 94.1188 2.89678 94.1188 2.7374V1.96866C94.1188 1.89991 94.1093 1.84835 94.0909 1.81397C94.0749 1.77647 94.0534 1.74991 94.0254 1.73428C94.0007 1.71553 93.9719 1.7046 93.9408 1.70147C93.9128 1.69835 93.8865 1.69678 93.8617 1.69678H89.8471V7.19991H88.6311V1.09209C88.6311 1.00772 88.6463 0.928027 88.6774 0.853027C88.7093 0.778031 88.7509 0.712405 88.8044 0.656156C88.8603 0.599905 88.9257 0.556156 89.0008 0.524905C89.0758 0.493656 89.1565 0.478031 89.2435 0.478031H93.8617C94.1332 0.478031 94.3624 0.528031 94.5492 0.628031C94.736 0.724905 94.8877 0.848347 95.0027 0.998347C95.1217 1.14522 95.2055 1.3046 95.2558 1.47647C95.3085 1.64835 95.3349 1.80928 95.3349 1.95928V2.7374Z" fill="white"/>
<path d="M102.717 7.19991H97.1689C97.0819 7.19991 97.0004 7.18428 96.9262 7.15303C96.8511 7.12178 96.7857 7.0796 96.729 7.02647C96.6763 6.97022 96.634 6.9046 96.6028 6.8296C96.5717 6.7546 96.5565 6.67334 96.5565 6.58584V0.478031H97.7725V5.98116H102.717V7.19991Z" fill="white"/>
</svg>
